<svg xmlns="http://www.w3.org/2000/svg" width="526.1" height="512" viewBox="0 0 526.1 512">
  <title>youtube</title>
  <g>
    <polygon points="139.82 197.82 173.55 197.82 173.55 115.76 212.82 0 178.54 0 157.68 79.05 155.55 79.05 133.63 0 99.65 0 139.82 119.41 139.82 197.82"/>
    <path d="M227.06,190.53q11.79,10.92,31.46,10.93,20.44,0,32.11-10.63t11.61-29.36V86.11c0-11.16-4-20.3-11.83-27.33S272.3,48.19,259.88,48.19c-13.6,0-24.45,3.38-32.54,10s-12.09,15.78-12.09,27V160.9Q215.26,179.49,227.06,190.53ZM249.5,76.44a13.14,13.14,0,0,1,8.93-3c4,0,7.18,1,9.6,3a9.36,9.36,0,0,1,3.68,7.72v79.52a12.07,12.07,0,0,1-3.61,9.23c-2.38,2.21-5.61,3.29-9.67,3.29s-7-1.08-9.14-3.29-3.19-5.24-3.19-9.23V84.16h0A9.7,9.7,0,0,1,249.5,76.44Z"/>
    <path d="M312,344.1a12.59,12.59,0,0,0-5.65,1.32,18.5,18.5,0,0,0-5.47,4.06V432a22.11,22.11,0,0,0,6.29,4.68,15.82,15.82,0,0,0,6.43,1.42c3.28,0,5.64-.92,7.19-2.81s2.29-4.87,2.29-9.14V357.74c0-4.51-.91-7.89-2.78-10.22S315.61,344.1,312,344.1Z"/>
    <path d="M347.48,199.95a37.84,37.84,0,0,0,17.38-4.68,63,63,0,0,0,17.23-13.57v16.11h30V51.88h-30V162.62a40.34,40.34,0,0,1-9.22,7.92c-3.38,2-6.17,3.08-8.37,3.08-2.8,0-4.86-.81-6.08-2.37s-1.94-4-1.94-7.48V51.88H326.56V173.82c0,8.77,1.75,15.26,5.24,19.56S340.52,199.95,347.48,199.95Z"/>
    <path d="M415.46,360.11c0-5.57-1-9.59-2.8-11.88-1.81-2.47-4.81-3.66-8.84-3.66-4.25,0-7.28,1.19-9.13,3.66-1.87,2.3-2.73,6.32-2.73,11.88V373.5h23.51Z"/>
    <path d="M430,243.86H96.11C43,243.86,0,286.67,0,339.5v76.88C0,469.16,43,512,96.11,512H430c53.08,0,96.1-42.84,96.1-95.62V339.5C526.14,286.67,483.11,243.86,430,243.86ZM166.27,303.69h-31V457.14h-30V303.69H74.18V277.57h92.09ZM254,457.15H227.35V442.63A59.51,59.51,0,0,1,212,454.91a32.64,32.64,0,0,1-15.46,4.2c-6.18,0-10.77-2-13.91-5.9s-4.68-9.84-4.68-17.76V324.67h26.61V426.32c0,3.12.58,5.38,1.65,6.77s3,2.1,5.47,2.1c1.9,0,4.42-.91,7.42-2.77a37.84,37.84,0,0,0,8.25-7.07V324.67H254Zm96.58-27.34h0q0,14-6.27,21.59c-4.13,5-10.22,7.47-18.08,7.47a32,32,0,0,1-14-2.87,34.09,34.09,0,0,1-11.37-9v10.15H274V277.57h26.9v57.87a41.21,41.21,0,0,1,11.39-9.24,26.48,26.48,0,0,1,12.3-3.15q12.63,0,19.28,8.49c4.42,5.65,6.68,13.87,6.68,24.73V429.8Zm44,3.78c1.77,2.67,4.78,4,9,4s7.49-1.14,9.25-3.42,2.65-7.31,2.65-15.12v-6h27.36v6.8c0,13.61-3.28,23.83-10,30.73S416.25,460.83,403,460.83q-17.91,0-28.18-10.93c-6.82-7.24-10.29-17.25-10.29-30V360.27c0-11.4,3.8-20.81,11.33-28S393.05,321.4,405,321.4q18.3,0,28.09,10c6.57,6.73,9.8,16.34,9.8,28.87v33.84H391.94V419c0,7,.85,11.85,2.59,14.59Z"/>
  </g>
</svg>
